<svg width="811" height="239" viewBox="0 0 811 239" fill="none" xmlns="http://www.w3.org/2000/svg">
<path d="M500.663 58.2217C484.338 58.2217 468.807 66.082 459.132 79.258C458.666 79.8878 458.213 80.5429 457.772 81.2105C457.331 80.5429 456.878 79.8878 456.412 79.258C446.737 66.082 431.206 58.2217 414.881 58.2217C402.246 58.2217 389.977 62.9454 380.593 71.3095V58.2217H363.386V161.186H380.593V109.717C380.593 90.8091 395.973 75.4286 414.881 75.4286C433.788 75.4286 449.169 90.8091 449.169 109.717V161.186H466.375V109.717C466.375 90.8091 481.756 75.4286 500.663 75.4286C519.571 75.4286 534.951 90.8091 534.951 109.717V161.186H552.158V109.717C552.158 98.6694 548.707 88.1386 542.194 79.258C532.52 66.082 516.989 58.2217 500.663 58.2217Z" fill="white"/>
<path d="M156.273 58.2466C127.893 58.2466 104.804 81.3361 104.804 109.716C104.804 138.096 127.893 161.186 156.273 161.186C184.654 161.186 207.743 138.096 207.743 109.716C207.743 81.3361 184.654 58.2466 156.273 58.2466ZM190.65 109.716C190.65 128.674 175.231 144.092 156.273 144.092C137.316 144.092 121.897 128.674 121.897 109.716C121.897 90.7584 137.316 75.3402 156.273 75.3402C175.231 75.3402 190.65 90.7584 190.65 109.716Z" fill="white"/>
<path d="M334.363 58.2217V109.691C334.363 128.599 318.982 143.979 300.075 143.979C281.167 143.979 265.787 128.599 265.787 109.691V58.2217H248.58V109.691C248.58 120.739 252.032 131.269 258.544 140.15C268.218 153.326 283.75 161.186 300.075 161.186C312.722 161.186 324.978 156.463 334.376 148.098V186.707C334.376 205.614 318.995 220.995 300.088 220.995C281.18 220.995 265.8 205.614 265.8 186.707V184.817H248.593V186.707C248.593 197.754 252.044 208.285 258.557 217.166C268.231 230.342 283.762 238.202 300.088 238.202C316.413 238.202 331.944 230.342 341.619 217.166C348.131 208.298 351.582 197.767 351.582 186.707V58.2217H334.363Z" fill="white"/>
<path d="M793.535 58.2217V109.691C793.535 128.599 778.154 143.979 759.247 143.979C740.339 143.979 724.959 128.599 724.959 109.691V58.2217H707.752V109.691C707.752 120.739 711.203 131.269 717.716 140.15C727.39 153.326 742.922 161.186 759.247 161.186C771.894 161.186 784.15 156.463 793.547 148.098V186.707C793.547 205.614 778.167 220.995 759.259 220.995C740.352 220.995 724.972 205.614 724.972 186.707V184.817H707.765V186.707C707.765 197.754 711.216 208.285 717.729 217.166C727.403 230.342 742.934 238.202 759.259 238.202C775.585 238.202 791.116 230.342 800.79 217.166C807.303 208.298 810.754 197.767 810.754 186.707V58.2217H793.535Z" fill="white"/>
<path d="M236.765 0H219.558V161.186H236.765V0Z" fill="white"/>
<path d="M615.443 58.2466C587.063 58.2466 563.974 81.3361 563.974 109.716C563.974 138.096 587.063 161.186 615.443 161.186C643.823 161.186 666.913 138.096 666.913 109.716C666.913 81.3361 643.823 58.2466 615.443 58.2466ZM649.819 109.716C649.819 128.674 634.401 144.092 615.443 144.092C596.485 144.092 581.067 128.674 581.067 109.716C581.067 90.7584 596.485 75.3402 615.443 75.3402C634.401 75.3402 649.819 90.7584 649.819 109.716Z" fill="white"/>
<path d="M695.936 0H678.729V161.186H695.936V0Z" fill="white"/>
<path d="M91.4765 58.2339L55.2235 136.081L18.9957 58.2339H0L47.9427 161.198H62.5295L110.472 58.2339H91.4765Z" fill="white"/>
</svg>
